# xmcd
#
# Track frame offsets:
#	150
#	20286
#	47952
#	77190
#	103924
#	126201
#	153177
#	176736
#	200398
#	225507
#	250045
#	279305
#
# Disc length: 4092 seconds
# Revision: 0
# Processed by: cddbd v1.5.2PL0 Copyright (c) Steve Scherf et al.
# Submitted via: dBpowerAMP V12.0
#
DISCID=980ffa0c
DTITLE=Gert Heidenreich - Die andere Heimat 2
DYEAR=1900
DGENRE=
TTITLE0=13
TTITLE1=14
TTITLE2=15
TTITLE3=16
TTITLE4=17
TTITLE5=18
TTITLE6=19
TTITLE7=20
TTITLE8=21
TTITLE9=22
TTITLE10=23
TTITLE11=24
EXTD=
EXTT0=
EXTT1=
EXTT2=
EXTT3=
EXTT4=
EXTT5=
EXTT6=
EXTT7=
EXTT8=
EXTT9=
EXTT10=
EXTT11=
PLAYORDER=
